<svg width="280" height="85" viewBox="0 0 280 85" fill="none" xmlns="http://www.w3.org/2000/svg">
<path d="M38.2107 85H1.20801L48.8479 0H86.1001L38.2107 85Z" fill="url(#paint0_linear_14_250)"/>
<path d="M71.8487 85H43.6541L57.1327 60.8721C59.8617 55.9871 65.036 52.9608 70.6505 52.9608C83.239 52.9608 91.1619 66.4528 84.985 77.3661C82.3147 82.0856 77.292 85 71.8487 85Z" fill="#EAAF4E"/>
<path d="M15.2785 0H43.4732L29.9945 24.1279C27.2655 29.0129 22.0912 32.0392 16.4767 32.0392C3.88819 32.0392 -4.03468 18.5472 2.14222 7.63394C4.81252 2.91929 9.83523 0 15.2785 0Z" fill="#214E4D"/>
<path d="M115.537 66.7447V61.3099L138.503 34.0924H115.537V28.3414H146.641V33.7227L123.675 60.9402H146.641V66.7447H115.537Z" fill="#343a40"/>
<path d="M180.905 66.7447L177.8 58.3274H162.433L159.328 66.7447H153.224L167.251 28.3414H173.032L187.058 66.7447H180.901H180.905ZM164.522 52.5764H175.712L170.092 37.2891L164.527 52.5764H164.522Z" fill="#343a40"/>
<path d="M199.91 34.0973V44.6408H216.773V50.3918H199.91V66.7447H194.13V28.3463H221.488V34.0973H199.91Z" fill="#343a40"/>
<path d="M229.465 66.7447V28.3463H235.246V66.7496H229.465V66.7447Z" fill="#343a40"/>
<path d="M270.898 66.7447L262.227 53.4279C260.975 51.4038 258.819 50.3918 255.747 50.3918H250.661V66.7447H244.88V28.3463H261.371C264.585 28.3463 267.402 29.3389 269.832 31.3289C272.366 33.5329 273.632 36.2138 273.632 39.3715C273.632 41.8918 272.791 44.1494 271.119 46.1345C269.69 47.6963 268.033 48.8495 266.14 49.5987C266.531 49.9199 266.942 50.3432 267.372 50.8784C267.803 51.4136 268.262 52.051 268.766 52.7954L277.868 66.7496H270.908L270.898 66.7447ZM265.812 35.5326C264.526 34.5741 263.044 34.0925 261.367 34.0925H250.661V44.636H261.367C263.044 44.636 264.526 44.1543 265.812 43.1958C267.133 42.2032 267.793 40.9236 267.793 39.3618C267.793 37.7999 267.133 36.5203 265.812 35.5278V35.5326Z" fill="#343a40"/>
<defs>
<linearGradient id="paint0_linear_14_250" x1="23.1377" y1="83.7885" x2="64.7138" y2="-0.744611" gradientUnits="userSpaceOnUse">
<stop stop-color="#093637"/>
<stop offset="1" stop-color="#44A08D"/>
</linearGradient>
</defs>
</svg>
